<svg width="512" height="512" viewBox="0 0 512 512" xmlns="http://www.w3.org/2000/svg" xmlns:xlink="http://www.w3.org/1999/xlink"><defs><path d="M505.388 107.494 249.412.827a10.665 10.665 0 0 0-9.215.47l-234.644 128A10.672 10.672 0 0 0 0 138.85a10.672 10.672 0 0 0 5.894 9.347l255.975 128a10.665 10.665 0 0 0 10.495-.533L507.01 126.331c4.967-3.166 6.427-9.76 3.262-14.728a10.674 10.674 0 0 0-4.883-4.109Z" id="a"/></defs><g fill="none" fill-rule="evenodd"><path d="M497.062 325.96 272.42 475.294a11.303 11.303 0 0 1-5.76 1.707v-213.36l235.31-10.453s-.426 58.906 0 62.959a10.665 10.665 0 0 1-4.907 9.813Z" fill="#4750AE" fill-rule="nonzero"/><path d="M266.66 477a11.618 11.618 0 0 1-4.693-1.067l-245.976-128a10.666 10.666 0 0 1-5.972-9.387v-63.6l256.64-11.306V477Z" fill="#6872C4" fill-rule="nonzero"/><path d="M249.424 135.165a10.665 10.665 0 0 0-9.215.469l-224.645 118a10.667 10.667 0 0 0 .34 18.901l245.977 118a10.665 10.665 0 0 0 10.495-.533L497.02 250.669c4.968-3.166 6.427-9.76 3.262-14.728a10.674 10.674 0 0 0-4.883-4.109l-245.975-96.667Z" fill="#D2CFDC" fill-rule="nonzero"/><g transform="translate(.011 124.338)"><mask id="b" fill="#fff"><use xlink:href="#a"/></mask><path d="M177.59 80.005c14.794 0 25.03 3.896 30.694 11.58 6.068 7.725 6.791 18.523 1.647 32.093-2.177 5.529-5.291 10.664-9.287 15.26-4.093 4.603-9.272 8.861-15.418 12.66a81.245 81.245 0 0 1-24.444 9.962c-8.607 1.95-19.277 2.938-31.646 2.938H104.21l-19.974 27.159c-.803 1.054-2.517 1.815-4.087 1.815H45.441c-.978 0-1.732-.299-2.05-.816-.316-.517-.167-1.197.407-1.855l83.6-108.981c.702-1.054 2.007-1.815 3.114-1.815h47.077Zm197.72 0c15.687 0 29.324 3.896 40.852 11.58 12.017 7.724 20.644 18.522 25.166 32.093 1.782 5.529 2.298 10.664 1.492 15.26-.894 4.603-3.187 8.861-6.841 12.66-4.494 4.63-10.7 7.987-18.371 9.962-7.643 1.95-18.203 2.938-31.317 2.938h-26.429l-.275 27.159c-.033 1.054-1.258 1.815-2.924 1.815h-36.798c-1.037 0-2.069-.299-2.808-.816-.738-.517-1.109-1.197-1.012-1.855l7.348-108.981c-.009-1.054.83-1.815 2.005-1.815h49.912ZM256.842 51.638c.6 0 1.167.3 1.546.816.381.518.534 1.197.416 1.855l-5.206 26.304h18.198c13.864 0 23.568 2.452 29.813 7.498 6.572 5.147 9.796 13.377 9.311 24.465l-4.255 50.714c-.125 1.054-1.225 1.816-2.625 1.816h-31.168c-.873 0-1.709-.3-2.278-.817-.57-.517-.813-1.196-.666-1.854l9.105-48.22c.7-4.586.249-7.878-1.236-9.268l-.122-.11c-.987-.838-3.606-2.11-10.48-2.165l-18.705-.001-17.644 60.619c-.355 1.054-1.623 1.816-3.022 1.816h-30.681c-.873 0-1.644-.3-2.102-.817-.457-.517-.552-1.197-.263-1.854L233.58 53.453c.289-1.053 1.192-1.815 2.154-1.815h21.108Zm-94.45 50.287h-16.735l-27.061 42.55h15.56c11.977 0 21.461-1.721 28.1-5.114 6.451-3.359 11.775-9.177 15.826-17.294 3.682-7.586 4.37-12.883 2.159-15.742-2.207-2.92-8.199-4.4-17.85-4.4Zm214.289 0h-16.735l3.761 42.55h15.56c11.977 0 20.195-1.721 24.341-5.114 3.993-3.358 5.07-9.177 3.23-17.294-1.793-7.586-4.909-12.883-9.167-15.742-4.292-2.92-11.34-4.4-20.99-4.4Z" fill="#C1BCD1" fill-rule="nonzero" mask="url(#b)"/></g><path d="M266.66 401.667a10.66 10.66 0 0 1-4.78-1.131l-255.975-128c-5.269-2.635-7.403-9.043-4.768-14.311a10.667 10.667 0 0 1 4.427-4.59l234.645-128a10.662 10.662 0 0 1 9.215-.469l255.975 106.667c5.436 2.271 8 8.518 5.73 13.954a10.663 10.663 0 0 1-4.108 4.883L272.376 400.003a10.66 10.66 0 0 1-5.717 1.664ZM33.7 262.595l232.341 116.16L478.33 243.651l-232.383-96.832L33.7 262.595Z" fill="#19212F" fill-rule="nonzero"/><path d="M266.66 487a10.66 10.66 0 0 1-4.78-1.131l-255.975-128a10.666 10.666 0 0 1-5.887-9.536V163.667C.018 157.776 4.793 153 10.683 153c5.89 0 10.666 4.776 10.666 10.667v178.075l244.692 122.347L490.64 321.156V142.334c0-5.891 4.775-10.667 10.666-10.667 5.89 0 10.666 4.776 10.666 10.667v184.667c0 3.646-1.855 7.041-4.928 9.003L272.398 485.336a10.694 10.694 0 0 1-5.739 1.664Z" fill="#19212F" fill-rule="nonzero"/><path d="M266.66 337.667a10.66 10.66 0 0 1-4.78-1.131l-255.975-128c-5.272-2.633-7.411-9.042-4.779-14.315 2.633-5.273 9.042-7.412 14.314-4.779l250.58 125.312 229.545-146.091c4.972-3.163 11.566-1.697 14.73 3.275 3.163 4.972 1.697 11.567-3.275 14.731L272.376 336.003a10.66 10.66 0 0 1-5.717 1.664Z" fill="#19212F" fill-rule="nonzero"/><path d="M10.683 209.667c-5.89-.004-10.658-4.783-10.658-10.674a10.66 10.66 0 0 1 5.56-9.358l234.645-128a10.662 10.662 0 0 1 9.215-.469L505.42 167.833c5.437 2.268 8.007 8.515 5.739 13.952-2.268 5.437-8.514 8.007-13.951 5.739L245.946 82.819 15.782 208.366a10.656 10.656 0 0 1-5.099 1.301Z" fill="#19212F" fill-rule="nonzero"/><path d="M234.662 135V35.667c0-5.891 4.776-10.667 10.666-10.667 5.89 0 10.666 4.776 10.666 10.667V135c0 5.891-4.775 10.667-10.666 10.667-5.89 0-10.666-4.776-10.666-10.667Zm31.997 266.667c-5.89 0-10.666-4.776-10.666-10.667v-99.333c0-5.891 4.776-10.667 10.666-10.667 5.89 0 10.666 4.776 10.666 10.667V391c0 5.891-4.776 10.667-10.666 10.667Z" fill="#19212F" fill-rule="nonzero"/></g></svg>