<svg width="513" height="244" viewBox="0 0 513 244" xmlns="http://www.w3.org/2000/svg"><path d="M116.83 48.762c24.266 0 42.327 6.696 53.68 19.906 11.413 13.278 14.938 31.84 10.475 55.167-1.816 9.504-4.94 18.33-9.284 26.232-4.349 7.911-10.097 15.231-17.086 21.76-8.367 7.96-17.837 13.73-28.12 17.126-10.122 3.351-23.12 5.05-38.633 5.05H56.598l-8.929 46.686c-.346 1.812-1.907 3.12-3.723 3.12H3.793a3.766 3.766 0 0 1-2.926-1.403 3.9 3.9 0 0 1-.797-3.188L35.894 51.881c.347-1.81 1.909-3.12 3.725-3.12h77.21Zm324.74 0c25.885 0 45.15 6.696 57.26 19.906 12.174 13.277 15.932 31.838 11.173 55.167-1.94 9.504-5.27 18.33-9.903 26.232-4.64 7.911-10.77 15.231-18.226 21.76-8.925 7.96-19.026 13.73-29.995 17.126-10.796 3.351-24.66 5.05-41.208 5.05h-33.35l-9.519 46.686c-.37 1.812-2.035 3.12-3.974 3.12H321c-1.207 0-2.354-.514-3.121-1.403a3.722 3.722 0 0 1-.851-3.188l38.212-187.337c.371-1.81 2.036-3.12 3.974-3.12h82.357ZM247.217 0c1.091 0 2.126.514 2.82 1.402.695.89.976 2.058.768 3.19l-8.33 45.214h29.757c22.668 0 38.04 4.216 46.992 12.89 9.126 8.848 11.973 22.995 8.464 42.054l-16.058 87.177c-.334 1.812-1.838 3.12-3.588 3.12h-38.99c-1.09 0-2.125-.514-2.819-1.403a4.005 4.005 0 0 1-.768-3.188l15.267-82.889c1.453-7.883 1.095-13.54-1.007-15.931l-.175-.188c-1.416-1.442-5.28-3.627-15.7-3.722l-28.364-.003-19.196 104.204c-.334 1.812-1.839 3.12-3.588 3.12h-38.38c-1.092 0-2.126-.514-2.82-1.403a4.01 4.01 0 0 1-.768-3.188L205.249 3.12C205.583 1.31 207.087 0 208.837 0h38.38ZM100.77 85.333H75.154l-14.202 73.143h20.824c16.03 0 27.997-2.959 35.569-8.792 7.49-5.773 12.664-15.775 15.376-29.726 2.528-13.04 1.565-22.146-2.862-27.06-4.527-5.02-14.313-7.565-29.088-7.565Zm329.142 0h-25.616l-14.202 73.143h20.823c16.03 0 27.997-2.959 35.568-8.792 7.491-5.771 12.665-15.773 15.378-29.726 2.528-13.04 1.565-22.146-2.863-27.06-4.527-5.02-14.313-7.565-29.088-7.565Z" fill="currentColor" fill-rule="nonzero"/></svg>