<svg width="512" height="463" viewBox="0 0 512 463" xmlns="http://www.w3.org/2000/svg"><path d="M245.503 0c3.987 0 7.598 1.617 10.211 4.23a14.397 14.397 0 0 1 4.23 10.212v25.17l223.166 92.995v-13.135c0-3.987 1.617-7.598 4.23-10.211a14.395 14.395 0 0 1 10.212-4.23c3.987 0 7.598 1.616 10.211 4.23a14.397 14.397 0 0 1 4.23 10.211v34.234c.01.382.01.766 0 1.151v146.45c0 4.934-2.513 9.529-6.676 12.187L274.27 460.536a14.468 14.468 0 0 1-14.23.723L7.988 335.222a14.429 14.429 0 0 1-5.817-5.324 14.43 14.43 0 0 1-2.154-7.587v-83.492a11.42 11.42 0 0 1 0-1.077v-61.8a14.409 14.409 0 0 1 0-1.373v-34.09c0-3.989 1.617-7.6 4.23-10.213a14.395 14.395 0 0 1 10.211-4.23c3.988 0 7.598 1.617 10.212 4.23a14.397 14.397 0 0 1 4.23 10.212l-.001 10.466 202.163-110.28V14.442c0-3.988 1.616-7.598 4.23-10.212A14.395 14.395 0 0 1 245.501 0ZM483.11 243.587 274.524 376.336c-1.914 1.281-4.145 2.216-9.07 2.39a14.362 14.362 0 0 1-5.227-1.395L28.899 261.653v51.734L265.665 431.77 483.11 293.389v-49.802ZM75.023 221.701l-29.398 16.035 206.44 103.21V310.23L75.023 221.7Zm364.083-13.127L280.947 309.23v28.79l185.498-118.054-27.339-11.392ZM246.34 128.25l-140.424 76.598 146.15 73.088v-11.423c0-3.988 1.616-7.598 4.229-10.212a14.395 14.395 0 0 1 10.211-4.23c3.988 0 7.598 1.617 10.212 4.23a14.397 14.397 0 0 1 4.23 10.212v8.472l125.64-79.962L246.34 128.25ZM28.9 198.636v15.316l14.648-7.991-14.648-7.325ZM483.11 180.57l-14.305 9.104 14.305 5.96V180.57ZM231.062 73.566 45.64 174.706l28.8 14.403 156.62-85.439V73.566Zm28.882-2.665v31.737l176.344 73.484 30.133-19.178-206.477-86.043Z" fill="currentColor" fill-rule="nonzero"/></svg>